<svg width="27" height="26" viewBox="0 0 27 26" fill="none" xmlns="http://www.w3.org/2000/svg">
<g clip-path="url(#clip0_1022_1148)">
<path d="M18.6963 14.625H17.0713V16.25H18.6963V14.625Z" fill="#000000"/>
<path d="M25.1963 13H23.5713V14.625H25.1963V13Z" fill="#000000"/>
<path d="M13.8213 4.875H12.1963V6.5H13.8213V4.875Z" fill="#000000"/>
<path d="M13.8213 17.875H10.5713V13C10.5708 12.5692 10.3994 12.1561 10.0948 11.8515C9.79015 11.5469 9.37711 11.3755 8.94629 11.375H4.07129C3.64046 11.3755 3.22743 11.5469 2.92279 11.8515C2.61815 12.1561 2.44678 12.5692 2.44629 13V17.875C2.44678 18.3058 2.61815 18.7189 2.92279 19.0235C3.22743 19.3281 3.64046 19.4995 4.07129 19.5H8.94629V22.75C8.94678 23.1808 9.11815 23.5939 9.42279 23.8985C9.72743 24.2031 10.1405 24.3745 10.5713 24.375H13.8213C14.2521 24.3745 14.6652 24.2031 14.9698 23.8985C15.2744 23.5939 15.4458 23.1808 15.4463 22.75V19.5C15.4458 19.0692 15.2744 18.6561 14.9698 18.3515C14.6652 18.0469 14.2521 17.8755 13.8213 17.875ZM4.07129 17.875V13H8.94629V17.875H4.07129ZM10.5713 22.75V19.5H13.8213V22.75H10.5713Z" fill="#000000"/>
<path d="M23.5713 24.375H20.3213C19.8905 24.3745 19.4774 24.2032 19.1727 23.8985C18.8681 23.5939 18.6967 23.1808 18.6963 22.75V19.5C18.6967 19.0692 18.8681 18.6561 19.1727 18.3515C19.4774 18.0468 19.8905 17.8755 20.3213 17.875H23.5713C24.0021 17.8755 24.4152 18.0468 24.7198 18.3515C25.0245 18.6561 25.1958 19.0692 25.1963 19.5V22.75C25.1958 23.1808 25.0245 23.5939 24.7198 23.8985C24.4152 24.2032 24.0021 24.3745 23.5713 24.375ZM20.3213 19.5V22.75H23.5713V19.5H20.3213Z" fill="#000000"/>
<path d="M23.5713 1.625H18.6963C18.2655 1.62549 17.8524 1.79686 17.5478 2.1015C17.2431 2.40614 17.0718 2.81918 17.0713 3.25V8.125H15.4463C15.0155 8.12549 14.6024 8.29686 14.2978 8.6015C13.9931 8.90614 13.8218 9.31918 13.8213 9.75V11.375C13.8218 11.8058 13.9931 12.2189 14.2978 12.5235C14.6024 12.8281 15.0155 12.9995 15.4463 13H17.0713C17.5021 12.9995 17.9152 12.8281 18.2198 12.5235C18.5244 12.2189 18.6958 11.8058 18.6963 11.375V9.75H23.5713C24.0021 9.74951 24.4152 9.57814 24.7198 9.2735C25.0244 8.96886 25.1958 8.55582 25.1963 8.125V3.25C25.1958 2.81918 25.0244 2.40614 24.7198 2.1015C24.4152 1.79686 24.0021 1.62549 23.5713 1.625ZM15.4463 11.375V9.75H17.0713V11.375H15.4463ZM18.6963 8.125V3.25H23.5713V8.125H18.6963Z" fill="#000000"/>
<path d="M7.32129 8.125H4.07129C3.64045 8.12455 3.22739 7.9532 2.92274 7.64855C2.61809 7.3439 2.44674 6.93084 2.44629 6.5V3.25C2.44674 2.81916 2.61809 2.4061 2.92274 2.10145C3.22739 1.7968 3.64045 1.62545 4.07129 1.625H7.32129C7.75213 1.62545 8.16519 1.7968 8.46984 2.10145C8.77449 2.4061 8.94584 2.81916 8.94629 3.25V6.5C8.94584 6.93084 8.77449 7.3439 8.46984 7.64855C8.16519 7.9532 7.75213 8.12455 7.32129 8.125ZM4.07129 3.25V6.5H7.32129V3.25H4.07129Z" fill="#000000"/>
</g>
<defs>
<clipPath id="clip0_1022_1148">
<rect width="26" height="26" fill="white" transform="translate(0.821289)"/>
</clipPath>
</defs>
</svg>
