<svg width="24" height="24" viewBox="0 0 24 24" fill="none" xmlns="http://www.w3.org/2000/svg">
    <path
        d="M5.99817 0.699951C3.19817 0.699951 0.998169 2.89995 0.998169 5.69995C0.998169 8.49995 3.19817 10.7 5.99817 10.7C8.79817 10.7 10.9982 8.49995 10.9982 5.69995C10.9982 2.89995 8.79817 0.699951 5.99817 0.699951ZM5.99817 8.69995C4.29817 8.69995 2.99817 7.39995 2.99817 5.69995C2.99817 3.99995 4.29817 2.69995 5.99817 2.69995C7.69817 2.69995 8.99817 3.99995 8.99817 5.69995C8.99817 7.39995 7.69817 8.69995 5.99817 8.69995ZM5.99817 12.7C3.19817 12.7 0.998169 14.9 0.998169 17.7C0.998169 20.5 3.19817 22.7 5.99817 22.7C8.79817 22.7 10.9982 20.5 10.9982 17.7C10.9982 14.9 8.79817 12.7 5.99817 12.7ZM5.99817 20.7C4.29817 20.7 2.99817 19.4 2.99817 17.7C2.99817 16 4.29817 14.7 5.99817 14.7C7.69817 14.7 8.99817 16 8.99817 17.7C8.99817 19.3 7.69817 20.7 5.99817 20.7ZM17.9982 10.7C20.7982 10.7 22.9982 8.49995 22.9982 5.69995C22.9982 2.89995 20.7982 0.699951 17.9982 0.699951C15.1982 0.699951 12.9982 2.89995 12.9982 5.69995C12.9982 8.49995 15.1982 10.7 17.9982 10.7ZM17.9982 2.69995C19.6982 2.69995 20.9982 3.99995 20.9982 5.69995C20.9982 7.39995 19.6982 8.69995 17.9982 8.69995C16.2982 8.69995 14.9982 7.39995 14.9982 5.69995C14.9982 3.99995 16.2982 2.69995 17.9982 2.69995ZM17.9982 12.7C15.1982 12.7 12.9982 14.9 12.9982 17.7C12.9982 20.5 15.1982 22.7 17.9982 22.7C20.7982 22.7 22.9982 20.5 22.9982 17.7C22.9982 14.9 20.7982 12.7 17.9982 12.7ZM17.9982 20.7C16.2982 20.7 14.9982 19.4 14.9982 17.7C14.9982 16 16.2982 14.7 17.9982 14.7C19.6982 14.7 20.9982 16 20.9982 17.7C20.9982 19.3 19.6982 20.7 17.9982 20.7Z"
        fill="#000000" />
</svg>